{
  "accessors": [
    {
      "bufferView": 2,
      "componentType": 5126,
      "count": 1764,
      "max": [
        0.05474325269460678,
        0.05844368040561676,
        0.08937835693359375
      ],
      "min": [
        -0.06743486225605011,
        -0.03584162890911102,
        -0.08735871315002441
      ],
      "type": "VEC3"
    },
    {
      "bufferView": 2,
      "byteOffset": 21168,
      "componentType": 5126,
      "count": 1764,
      "max": [
        0.9998770356178284,
        1.0,
        1.0
      ],
      "min": [
        -0.999322772026062,
        -1.0,
        -0.9999997615814209
      ],
      "type": "VEC3"
    },
    {
      "bufferView": 1,
      "componentType": 5126,
      "count": 1764,
      "max": [
        0.994044840335846,
        0.8456792235374451
      ],
      "min": [
        0.9466978907585144,
        0.1528480052947998
      ],
      "type": "VEC2"
    },
    {
      "bufferView": 0,
      "componentType": 5125,
      "count": 9813,
      "type": "SCALAR"
    },
    {
      "bufferView": 2,
      "byteOffset": 42336,
      "componentType": 5126,
      "count": 727,
      "max": [
        -0.014199186116456985,
        0.017859119921922684,
        0.03562364727258682
      ],
      "min": [
        -0.06250721216201782,
        -0.009824495762586594,
        -0.045097850263118744
      ],
      "type": "VEC3"
    },
    {
      "bufferView": 2,
      "byteOffset": 51060,
      "componentType": 5126,
      "count": 727,
      "max": [
        0.9978663325309753,
        0.9998971819877625,
        0.997193455696106
      ],
      "min": [
        -0.9980323910713196,
        -0.9990507960319519,
        -0.9969369769096375
      ],
      "type": "VEC3"
    },
    {
      "bufferView": 1,
      "byteOffset": 14112,
      "componentType": 5126,
      "count": 727,
      "max": [
        0.9914267063140869,
        0.5402216911315918
      ],
      "min": [
        0.9566274285316467,
        0.5044909715652466
      ],
      "type": "VEC2"
    },
    {
      "bufferView": 0,
      "byteOffset": 39252,
      "componentType": 5125,
      "count": 3594,
      "type": "SCALAR"
    },
    {
      "bufferView": 2,
      "byteOffset": 59784,
      "componentType": 5126,
      "count": 3847,
      "max": [
        0.11018741875886917,
        0.09005850553512573,
        0.06724575161933899
      ],
      "min": [
        -0.10458872467279434,
        0.008504295721650124,
        -0.02684241533279419
      ],
      "type": "VEC3"
    },
    {
      "bufferView": 2,
      "byteOffset": 105948,
      "componentType": 5126,
      "count": 3847,
      "max": [
        1.0,
        1.0,
        1.0
      ],
      "min": [
        -1.0,
        -0.9995144009590149,
        -1.0
      ],
      "type": "VEC3"
    },
    {
      "bufferView": 1,
      "byteOffset": 19928,
      "componentType": 5126,
      "count": 3847,
      "max": [
        0.9970822334289551,
        0.9885014295578003
      ],
      "min": [
        0.00482943095266819,
        0.006650269031524658
      ],
      "type": "VEC2"
    },
    {
      "bufferView": 0,
      "byteOffset": 53628,
      "componentType": 5125,
      "count": 16653,
      "type": "SCALAR"
    },
    {
      "bufferView": 2,
      "byteOffset": 152112,
      "componentType": 5126,
      "count": 29858,
      "max": [
        0.058718860149383545,
        0.062288545072078705,
        0.09379588067531586
      ],
      "min": [
        -0.07222872227430344,
        -0.038466595113277435,
        -0.09046782553195953
      ],
      "type": "VEC3"
    },
    {
      "bufferView": 2,
      "byteOffset": 510408,
      "componentType": 5126,
      "count": 29858,
      "max": [
        1.0,
        1.0,
        1.0
      ],
      "min": [
        -1.0,
        -1.0,
        -1.0
      ],
      "type": "VEC3"
    },
    {
      "bufferView": 1,
      "byteOffset": 50704,
      "componentType": 5126,
      "count": 29858,
      "max": [
        0.9980181455612183,
        0.9975354671478271
      ],
      "min": [
        0.0004999918164685369,
        0.0004999637603759766
      ],
      "type": "VEC2"
    },
    {
      "bufferView": 0,
      "byteOffset": 120240,
      "componentType": 5125,
      "count": 125871,
      "type": "SCALAR"
    }
  ],
  "asset": {
    "extras": {
      "author": "brianj.seely (https://sketchfab.com/brianj.seely)",
      "license": "CC-BY-4.0 (http://creativecommons.org/licenses/by/4.0/)",
      "source": "https://sketchfab.com/3d-models/plant-cell-caa4a71203254d979bb8f200a8f96eab",
      "title": "Plant Cell"
    },
    "generator": "Sketchfab-14.66.0",
    "version": "2.0"
  },
  "bufferViews": [
    {
      "buffer": 0,
      "byteLength": 623724,
      "name": "floatBufferViews",
      "target": 34963
    },
    {
      "buffer": 0,
      "byteLength": 289568,
      "byteOffset": 623724,
      "byteStride": 8,
      "name": "floatBufferViews",
      "target": 34962
    },
    {
      "buffer": 0,
      "byteLength": 868704,
      "byteOffset": 913292,
      "byteStride": 12,
      "name": "floatBufferViews",
      "target": 34962
    }
  ],
  "buffers": [
    {
      "byteLength": 1781996,
      "uri": "scene.bin"
    }
  ],
  "images": [
    {
      "uri": "textures/Material_35_baseColor.png"
    },
    {
      "uri": "textures/Material_37_baseColor.jpeg"
    },
    {
      "uri": "textures/Material_36_baseColor.jpeg"
    }
  ],
  "materials": [
    {
      "alphaMode": "BLEND",
      "name": "Material_35",
      "pbrMetallicRoughness": {
        "baseColorTexture": {
          "index": 0
        },
        "metallicFactor": 0.0,
        "roughnessFactor": 0.35
      }
    },
    {
      "name": "Material_37",
      "pbrMetallicRoughness": {
        "baseColorTexture": {
          "index": 1
        },
        "metallicFactor": 0.0,
        "roughnessFactor": 0.9
      }
    },
    {
      "name": "Material_36",
      "pbrMetallicRoughness": {
        "baseColorTexture": {
          "index": 2
        },
        "metallicFactor": 0.0,
        "roughnessFactor": 0.35
      }
    }
  ],
  "meshes": [
    {
      "name": "Object_0",
      "primitives": [
        {
          "attributes": {
            "NORMAL": 1,
            "POSITION": 0,
            "TEXCOORD_0": 2
          },
          "indices": 3,
          "material": 0,
          "mode": 4
        }
      ]
    },
    {
      "name": "Object_1",
      "primitives": [
        {
          "attributes": {
            "NORMAL": 5,
            "POSITION": 4,
            "TEXCOORD_0": 6
          },
          "indices": 7,
          "material": 0,
          "mode": 4
        }
      ]
    },
    {
      "name": "Object_2",
      "primitives": [
        {
          "attributes": {
            "NORMAL": 9,
            "POSITION": 8,
            "TEXCOORD_0": 10
          },
          "indices": 11,
          "material": 1,
          "mode": 4
        }
      ]
    },
    {
      "name": "Object_3",
      "primitives": [
        {
          "attributes": {
            "NORMAL": 13,
            "POSITION": 12,
            "TEXCOORD_0": 14
          },
          "indices": 15,
          "material": 2,
          "mode": 4
        }
      ]
    }
  ],
  "nodes": [
    {
      "children": [
        1
      ],
      "matrix": [
        1.0,
        0.0,
        0.0,
        0.0,
        0.0,
        2.220446049250313e-16,
        -1.0,
        0.0,
        0.0,
        1.0,
        2.220446049250313e-16,
        0.0,
        0.0,
        0.0,
        0.0,
        1.0
      ],
      "name": "Sketchfab_model"
    },
    {
      "children": [
        2
      ],
      "name": "root"
    },
    {
      "children": [
        3,
        6,
        8
      ],
      "matrix": [
        1.0,
        0.0,
        0.0,
        0.0,
        0.0,
        2.220446049250313e-16,
        1.0,
        0.0,
        0.0,
        -1.0,
        2.220446049250313e-16,
        0.0,
        0.0,
        0.0,
        0.0,
        1.0
      ],
      "name": "GLTF_SceneRootNode"
    },
    {
      "children": [
        4,
        5
      ],
      "matrix": [
        3.0940229892730713,
        0.0,
        0.0,
        0.0,
        0.0,
        3.0940229892730713,
        0.0,
        0.0,
        0.0,
        0.0,
        3.0940229892730713,
        0.0,
        0.024173341691493988,
        0.1280476152896881,
        -0.0350724458694458,
        1.0
      ],
      "name": "transparent_0"
    },
    {
      "mesh": 0,
      "name": "Object_4"
    },
    {
      "mesh": 1,
      "name": "Object_5"
    },
    {
      "children": [
        7
      ],
      "matrix": [
        3.0940229892730713,
        0.0,
        0.0,
        0.0,
        0.0,
        3.0940229892730713,
        0.0,
        0.0,
        0.0,
        0.0,
        3.0940229892730713,
        0.0,
        0.024173341691493988,
        0.1280476152896881,
        -0.0350724458694458,
        1.0
      ],
      "name": "Labels_1"
    },
    {
      "mesh": 2,
      "name": "Object_7"
    },
    {
      "children": [
        9
      ],
      "matrix": [
        3.0940229892730713,
        0.0,
        0.0,
        0.0,
        0.0,
        3.0940229892730713,
        0.0,
        0.0,
        0.0,
        0.0,
        3.0940229892730713,
        0.0,
        0.024173341691493988,
        0.1280476152896881,
        -0.0350724458694458,
        1.0
      ],
      "name": "opaque_2"
    },
    {
      "mesh": 3,
      "name": "Object_9"
    }
  ],
  "samplers": [
    {
      "magFilter": 9729,
      "minFilter": 9987,
      "wrapS": 10497,
      "wrapT": 10497
    }
  ],
  "scene": 0,
  "scenes": [
    {
      "name": "Sketchfab_Scene",
      "nodes": [
        0
      ]
    }
  ],
  "textures": [
    {
      "sampler": 0,
      "source": 0
    },
    {
      "sampler": 0,
      "source": 1
    },
    {
      "sampler": 0,
      "source": 2
    }
  ]
}
